<?xml version="1.0" encoding="UTF-8"?>
<svg xmlns="http://www.w3.org/2000/svg" xmlns:xlink="http://www.w3.org/1999/xlink" width="480pt" height="480pt" viewBox="0 0 480 480" version="1.1">
<g id="surface1">
<path style=" stroke:none;fill-rule:nonzero;fill:#050404;fill-opacity:1;" d="M 54 96 C 40.804688 96 30 106.804688 30 120 L 30 204 L 36 204 C 55.945313 204 72 220.054688 72 240 C 72 259.945313 55.945313 276 36 276 L 30 276 L 30 360 C 30 373.195313 40.804688 384 54 384 L 426 384 C 439.195313 384 450 373.195313 450 360 L 450 276 L 444 276 C 424.054688 276 408 259.945313 408 240 C 408 220.054688 424.054688 204 444 204 L 450 204 L 450 120 C 450 106.804688 439.195313 96 426 96 Z M 54 108 L 144 108 C 144 111.304688 146.695313 114 150 114 C 153.304688 114 156 111.304688 156 108 L 426 108 C 432.703125 108 438 113.296875 438 120 L 438 193.21875 C 414.515625 196.3125 396 215.695313 396 240 C 396 264.304688 414.515625 283.6875 438 286.78125 L 438 360 C 438 366.703125 432.703125 372 426 372 L 156 372 C 156 368.695313 153.304688 366 150 366 C 146.695313 366 144 368.695313 144 372 L 54 372 C 47.296875 372 42 366.703125 42 360 L 42 286.78125 C 65.484375 283.6875 84 264.304688 84 240 C 84 215.695313 65.484375 196.3125 42 193.21875 L 42 120 C 42 113.296875 47.296875 108 54 108 Z M 150 126 C 146.695313 126 144 128.695313 144 132 C 144 135.304688 146.695313 138 150 138 C 153.304688 138 156 135.304688 156 132 C 156 128.695313 153.304688 126 150 126 Z M 150 150 C 146.695313 150 144 152.695313 144 156 C 144 159.304688 146.695313 162 150 162 C 153.304688 162 156 159.304688 156 156 C 156 152.695313 153.304688 150 150 150 Z M 150 174 C 146.695313 174 144 176.695313 144 180 C 144 183.304688 146.695313 186 150 186 C 153.304688 186 156 183.304688 156 180 C 156 176.695313 153.304688 174 150 174 Z M 150 198 C 146.695313 198 144 200.695313 144 204 C 144 207.304688 146.695313 210 150 210 C 153.304688 210 156 207.304688 156 204 C 156 200.695313 153.304688 198 150 198 Z M 150 222 C 146.695313 222 144 224.695313 144 228 C 144 231.304688 146.695313 234 150 234 C 153.304688 234 156 231.304688 156 228 C 156 224.695313 153.304688 222 150 222 Z M 150 246 C 146.695313 246 144 248.695313 144 252 C 144 255.304688 146.695313 258 150 258 C 153.304688 258 156 255.304688 156 252 C 156 248.695313 153.304688 246 150 246 Z M 150 270 C 146.695313 270 144 272.695313 144 276 C 144 279.304688 146.695313 282 150 282 C 153.304688 282 156 279.304688 156 276 C 156 272.695313 153.304688 270 150 270 Z M 150 294 C 146.695313 294 144 296.695313 144 300 C 144 303.304688 146.695313 306 150 306 C 153.304688 306 156 303.304688 156 300 C 156 296.695313 153.304688 294 150 294 Z M 150 318 C 146.695313 318 144 320.695313 144 324 C 144 327.304688 146.695313 330 150 330 C 153.304688 330 156 327.304688 156 324 C 156 320.695313 153.304688 318 150 318 Z M 150 342 C 146.695313 342 144 344.695313 144 348 C 144 351.304688 146.695313 354 150 354 C 153.304688 354 156 351.304688 156 348 C 156 344.695313 153.304688 342 150 342 Z "/>
</g>
</svg>
