<?xml version="1.0" encoding="UTF-8"?>
<svg xmlns="http://www.w3.org/2000/svg" xmlns:xlink="http://www.w3.org/1999/xlink" width="512pt" height="512pt" viewBox="0 0 512 512" version="1.1">
<g id="surface1">
<path style=" stroke:none;fill-rule:nonzero;fill:#FFEFB8;fill-opacity:1;" d="M 32 424 L 480 424 C 493.253906 424 504 413.253906 504 400 L 504 336 L 432 288 L 432 224 L 504 176 L 504 112 C 504 98.746094 493.253906 88 480 88 L 32 88 C 18.746094 88 8 98.746094 8 112 L 8 176 L 80 224 L 80 288 L 8 336 L 8 400 C 8 413.253906 18.746094 424 32 424 Z "/>
<path style=" stroke:none;fill-rule:nonzero;fill:#FFF6DF;fill-opacity:1;" d="M 432 288 L 432 224 L 504 176 L 504 112 C 504 98.746094 493.253906 88 480 88 L 394 88 L 226 424 L 380 424 L 444 296 Z M 194 424 L 152 424 L 320 88 L 362 88 Z M 110 424 L 96 424 L 264 88 L 278 88 Z "/>
<path style=" stroke:none;fill-rule:nonzero;fill:#72CAAF;fill-opacity:1;" d="M 32 424 L 144 424 C 157.253906 424 168 413.253906 168 400 L 168 112 C 168 98.746094 157.253906 88 144 88 L 32 88 C 18.746094 88 8 98.746094 8 112 L 8 176 L 80 224 L 80 288 L 8 336 L 8 400 C 8 413.253906 18.746094 424 32 424 Z "/>
<path style=" stroke:none;fill-rule:nonzero;fill:#FFF8F8;fill-opacity:1;" d="M 212 272 L 221.921875 290.078125 L 240 300 L 221.921875 309.921875 L 212 328 L 202.078125 309.921875 L 184 300 L 202.078125 290.078125 Z M 435.359375 128 L 442.160156 140.480469 L 454.71875 147.359375 L 442.160156 154.160156 L 435.359375 166.71875 L 428.480469 154.160156 L 416 147.359375 L 428.480469 140.480469 Z M 402.800781 357.601563 L 407.519531 366.160156 L 416 370.800781 L 407.519531 375.519531 L 402.800781 384 L 398.160156 375.519531 L 389.601563 370.800781 L 398.160156 366.160156 Z "/>
<path style=" stroke:none;fill-rule:nonzero;fill:#8D6C9F;fill-opacity:1;" d="M 492.640625 193.039063 C 503.878906 190.824219 511.988281 180.976563 512 169.519531 L 512 104 C 512 90.746094 501.253906 80 488 80 L 24 80 C 10.746094 80 0 90.746094 0 104 L 0 169.519531 C 0.0117188 180.976563 8.121094 190.824219 19.359375 193.039063 C 49.875 198.5 72.089844 225.039063 72.089844 256.039063 C 72.089844 287.039063 49.875 313.582031 19.359375 319.039063 C 8.148438 321.25 0.0507813 331.054688 0 342.480469 L 0 408 C 0 421.253906 10.746094 432 24 432 L 488 432 C 501.253906 432 512 421.253906 512 408 L 512 342.480469 C 511.988281 331.023438 503.878906 321.175781 492.640625 318.960938 C 462.125 313.5 439.910156 286.960938 439.910156 255.960938 C 439.910156 224.960938 462.125 198.417969 492.640625 192.960938 Z M 424 256 C 424 294.6875 451.6875 327.832031 489.761719 334.71875 C 493.480469 335.558594 496.09375 338.90625 496 342.71875 L 496 408 C 496 412.417969 492.417969 416 488 416 L 144 416 C 144 411.582031 140.417969 408 136 408 L 120 408 C 115.582031 408 112 411.582031 112 416 L 24 416 C 19.582031 416 16 412.417969 16 408 L 16 342.480469 C 15.90625 338.667969 18.519531 335.316406 22.238281 334.480469 C 60.410156 327.679688 88.210938 294.492188 88.210938 255.71875 C 88.210938 216.949219 60.410156 183.757813 22.238281 176.960938 C 18.519531 176.121094 15.90625 172.773438 16 168.960938 L 16 104 C 16 99.582031 19.582031 96 24 96 L 112 96 C 112 100.417969 115.582031 104 120 104 L 136 104 C 140.417969 104 144 100.417969 144 96 L 488 96 C 492.417969 96 496 99.582031 496 104 L 496 169.519531 C 496.09375 173.332031 493.480469 176.683594 489.761719 177.519531 C 451.777344 184.390625 424.117188 217.402344 424 256 Z "/>
<path style=" stroke:none;fill-rule:nonzero;fill:#8D6C9F;fill-opacity:1;" d="M 136 128 L 120 128 C 115.582031 128 112 131.582031 112 136 C 112 140.417969 115.582031 144 120 144 L 136 144 C 140.417969 144 144 140.417969 144 136 C 144 131.582031 140.417969 128 136 128 Z M 136 168 L 120 168 C 115.582031 168 112 171.582031 112 176 C 112 180.417969 115.582031 184 120 184 L 136 184 C 140.417969 184 144 180.417969 144 176 C 144 171.582031 140.417969 168 136 168 Z M 136 208 L 120 208 C 115.582031 208 112 211.582031 112 216 C 112 220.417969 115.582031 224 120 224 L 136 224 C 140.417969 224 144 220.417969 144 216 C 144 211.582031 140.417969 208 136 208 Z M 136 248 L 120 248 C 115.582031 248 112 251.582031 112 256 C 112 260.417969 115.582031 264 120 264 L 136 264 C 140.417969 264 144 260.417969 144 256 C 144 251.582031 140.417969 248 136 248 Z M 136 288 L 120 288 C 115.582031 288 112 291.582031 112 296 C 112 300.417969 115.582031 304 120 304 L 136 304 C 140.417969 304 144 300.417969 144 296 C 144 291.582031 140.417969 288 136 288 Z M 136 328 L 120 328 C 115.582031 328 112 331.582031 112 336 C 112 340.417969 115.582031 344 120 344 L 136 344 C 140.417969 344 144 340.417969 144 336 C 144 331.582031 140.417969 328 136 328 Z M 136 368 L 120 368 C 115.582031 368 112 371.582031 112 376 C 112 380.417969 115.582031 384 120 384 L 136 384 C 140.417969 384 144 380.417969 144 376 C 144 371.582031 140.417969 368 136 368 Z M 168 112 C 163.582031 112 160 115.582031 160 120 L 160 392 C 160 396.417969 163.582031 400 168 400 C 172.417969 400 176 396.417969 176 392 L 176 120 C 176 115.582031 172.417969 112 168 112 Z "/>
<path style=" stroke:none;fill-rule:nonzero;fill:#ED7899;fill-opacity:1;" d="M 376 224 L 216 224 C 211.582031 224 208 227.582031 208 232 C 208 236.417969 211.582031 240 216 240 L 376 240 C 380.417969 240 384 236.417969 384 232 C 384 227.582031 380.417969 224 376 224 Z M 280 272 L 216 272 C 211.582031 272 208 275.582031 208 280 C 208 284.417969 211.582031 288 216 288 L 280 288 C 284.417969 288 288 284.417969 288 280 C 288 275.582031 284.417969 272 280 272 Z M 344 272 L 312 272 C 307.582031 272 304 275.582031 304 280 C 304 284.417969 307.582031 288 312 288 L 344 288 C 348.417969 288 352 284.417969 352 280 C 352 275.582031 348.417969 272 344 272 Z "/>
</g>
</svg>
