<svg xmlns="http://www.w3.org/2000/svg" width="444.406" height="424" viewBox="0 0 444.406 424">
  <g id="now-showing-white" transform="translate(-44 -44)">
    <path id="Path_1" data-name="Path 1" d="M256,44C139.2,44,44,139.2,44,256s95.2,212,212,212H416a12,12,0,0,0,0-24H354c67.594-35.594,114-106.406,114-188C468,139.2,372.8,44,256,44Zm0,59.2c26.8,0,48.8,22.391,48,49.188A48.784,48.784,0,0,1,257.2,199.2a48.007,48.007,0,1,1-1.2-96ZM151.2,208a48,48,0,1,1-48,48A48.133,48.133,0,0,1,151.2,208ZM360.8,208a48,48,0,1,1-48,48A48.133,48.133,0,0,1,360.8,208ZM256,242.8A13.2,13.2,0,1,1,242.8,256,13.318,13.318,0,0,1,256,242.8Zm0,70a48,48,0,1,1-48,48A48.133,48.133,0,0,1,256,312.8ZM476,443.7a9.849,9.849,0,0,0-2.406.3,5.562,5.562,0,0,0-2.391.8c-.8.406-1.2.8-2,1.2a7.152,7.152,0,0,0-2,1.594A11.517,11.517,0,0,0,463.594,456a5.06,5.06,0,0,0,.406,2.406,5.562,5.562,0,0,0,.8,2.391,8.944,8.944,0,0,0,1.2,2,3.2,3.2,0,0,0,1.594,1.609A11.559,11.559,0,0,0,476,468a5.06,5.06,0,0,0,2.406-.406,5.562,5.562,0,0,0,2.391-.8,8.944,8.944,0,0,0,2-1.2A3.14,3.14,0,0,0,484.406,464L486,462.406c.406-.812.8-1.2,1.2-2,.406-.812.391-1.609.8-2.406,0-.8.406-1.594.406-2.406A10.88,10.88,0,0,0,484.8,447.2a8.944,8.944,0,0,1-2-1.2c-.8-.406-1.2-.8-2-1.2s-1.594-.391-2.391-.8A9.849,9.849,0,0,0,476,443.7Z" fill="#fff"/>
  </g>
</svg>
