<svg xmlns="http://www.w3.org/2000/svg" width="173.332" height="204.848" viewBox="0 0 173.332 204.848">
  <g id="profile" transform="translate(-15.758)">
    <path id="Path_10" data-name="Path 10" d="M102.426,0C76.418,0,55.152,16.559,55.152,47.273c0,20.559,9.57,41.855,23.637,53.672v10.836c0,4.739-3.2,8.8-7.141,9.6-30.715,9.449-55.891,29.793-55.891,41.609v14.281c0,14.957,38.594,27.575,86.668,27.575s86.664-12.618,86.664-27.575V162.992c0-11.019-24.375-32.16-55.891-41.609-3.937-.8-7.136-5.664-7.136-9.6V100.945C140.125,89.129,149.7,67.832,149.7,47.273,149.7,16.559,128.43,0,102.426,0Z" fill="#071c4d"/>
  </g>
</svg>
