<?xml version="1.0" encoding="UTF-8"?>
<svg xmlns="http://www.w3.org/2000/svg" xmlns:xlink="http://www.w3.org/1999/xlink" width="480pt" height="480pt" viewBox="0 0 480 480" version="1.1">
<g id="surface1">
<path style=" stroke:none;fill-rule:nonzero;fill:#F4511E;fill-opacity:1;" d="M 420 370 C 420 397.621094 397.609375 420 370 420 L 110 420 C 82.378906 420 60 397.621094 60 370 L 60 110 C 60 82.378906 82.378906 60 110 60 L 370 60 C 397.609375 60 420 82.378906 420 110 Z "/>
<path style=" stroke:none;fill-rule:evenodd;fill:#FFFFFF;fill-opacity:1;" d="M 340 190 L 360 190 L 360 270 L 340 270 Z "/>
<path style=" stroke:none;fill-rule:evenodd;fill:#FFFFFF;fill-opacity:1;" d="M 390 220 L 390 240 L 310 240 L 310 220 Z "/>
<path style=" stroke:none;fill-rule:evenodd;fill:#FFFFFF;fill-opacity:1;" d="M 278.148438 222 L 277.648438 220 L 190 220 L 190 250 L 249.101563 250 C 244.328125 278.371094 219.71875 300 190 300 C 156.859375 300 130 273.140625 130 240 C 130 206.859375 156.859375 180 190 180 C 205 180 218.679688 185.539063 229.199219 194.648438 L 250.710938 173.589844 C 234.710938 158.941406 213.398438 150 190 150 C 140.289063 150 100 190.289063 100 240 C 100 289.710938 140.289063 330 190 330 C 239.710938 330 280 289.710938 280 240 C 280 233.828125 279.339844 227.820313 278.148438 222 Z "/>
</g>
</svg>
