<?xml version="1.0" encoding="UTF-8"?>
<svg xmlns="http://www.w3.org/2000/svg" xmlns:xlink="http://www.w3.org/1999/xlink" width="500pt" height="500pt" viewBox="0 0 500 500" version="1.1">
<g id="surface1">
<path style=" stroke:none;fill-rule:nonzero;fill:#050404;fill-opacity:1;" d="M 248.015625 9.921875 C 243.90625 9.921875 240.265625 12.441406 238.753906 16.277344 L 177.601563 173.960938 L 9.417969 182.5625 C 5.308594 182.757813 1.78125 185.46875 0.503906 189.34375 C -0.773438 193.257813 0.464844 197.558594 3.644531 200.117188 L 134.585938 307.230469 L 91.609375 469.679688 C 90.527344 473.632813 92.039063 477.816406 95.332031 480.257813 C 98.664063 482.664063 103.121094 482.777344 106.53125 480.570313 L 248.015625 389.773438 L 389.5 480.570313 C 392.910156 482.777344 397.367188 482.664063 400.699219 480.257813 C 403.996094 477.816406 405.507813 473.632813 404.421875 469.679688 L 361.445313 307.230469 L 492.390625 200.117188 C 495.566406 197.558594 496.808594 193.257813 495.527344 189.34375 C 494.25 185.46875 490.722656 182.757813 486.613281 182.5625 L 318.429688 173.960938 L 257.277344 16.277344 C 255.765625 12.441406 252.125 9.921875 248.015625 9.921875 Z M 248.015625 47.277344 L 302.269531 187.097656 C 303.664063 190.777344 307.113281 193.257813 310.988281 193.453125 L 459.914063 201.046875 L 343.929688 295.914063 C 340.90625 298.355469 339.625 302.347656 340.59375 306.105469 L 378.726563 450.109375 L 253.402344 369.621094 C 250.109375 367.527344 245.921875 367.527344 242.628906 369.621094 L 117.304688 450.109375 L 155.4375 306.105469 C 156.40625 302.347656 155.125 298.355469 152.101563 295.914063 L 36.117188 201.046875 L 185.042969 193.453125 C 188.917969 193.257813 192.367188 190.777344 193.761719 187.097656 Z "/>
</g>
</svg>
