<svg width="580" height="400" xmlns="http://www.w3.org/2000/svg">
 <!-- Created with Method Draw - http://github.com/duopixel/Method-Draw/ -->

 <g>
  <title>background</title>
  <rect fill="#fff" id="canvas_background" height="402" width="582" y="-1" x="-1"/>
  <g display="none" overflow="visible" y="0" x="0" height="100%" width="100%" id="canvasGrid">
   <rect fill="url(#gridpattern)" stroke-width="0" y="0" x="0" height="100%" width="100%"/>
  </g>
 </g>
 <g>
  <title>Layer 1</title>
  <g id="svg_8">
   <g transform="matrix(0.07716050118575879,0,0,0.07716050118575879,0,0) " id="svg_4">
    <path id="svg_6" fill-rule="nonzero" fill="#3F51B5" d="m3938.399658,2721.999756c0,27.62109 -22.37891,50 -50,50l-260,0c-27.60937,0 -50,-22.37891 -50,-50l0,-260c0,-27.62109 22.39063,-50 50,-50l260,0c27.62109,0 50,22.37891 50,50l0,260z"/>
    <path id="svg_7" fill-rule="nonzero" fill="#FFFFFF" d="m3911.48434,2601.99976l-131.48434,0l0,130l-50,0l0,-130l-30,0l0,-40l30,0l0,-24.10156c0.01953,-35.07813 14.58984,-55.89844 55.92188,-55.89844l34.07812,0l0,40l-22.87109,0c-16.08985,0 -17.12891,6 -17.12891,17.23047l0,22.76953l40,0l0,40z"/>
   </g>
  </g>
 </g>
</svg>